<svg width="24" height="24" viewBox="0 0 24 24" fill="none" xmlns="http://www.w3.org/2000/svg">
<path d="M15 9V15H9V9H15Z" stroke="#8B8D96" stroke-width="1.5" stroke-linejoin="round"/>
<path d="M15 15H18C19.6569 15 21 16.3431 21 18C21 19.6569 19.6569 21 18 21C16.3431 21 15 19.6569 15 18V15Z" stroke="#8B8D96" stroke-width="1.5" stroke-linejoin="round"/>
<path d="M9 15H6C4.34315 15 3 16.3431 3 18C3 19.6568 4.34315 21 6 21C7.65685 21 9 19.6568 9 18V15Z" stroke="#8B8D96" stroke-width="1.5" stroke-linejoin="round"/>
<path d="M15 9V6C15 4.34315 16.3431 3 18 3C19.6569 3 21 4.34315 21 6C21 7.65685 19.6569 9 18 9H15Z" stroke="#8B8D96" stroke-width="1.5" stroke-linejoin="round"/>
<path d="M9 9V6C9 4.34315 7.65685 3 6 3C4.34315 3 3 4.34315 3 6C3 7.65685 4.34315 9 6 9H9Z" stroke="#8B8D96" stroke-width="1.5" stroke-linejoin="round"/>
</svg>
