<svg width="24" height="24" viewBox="0 0 24 24" fill="none" xmlns="http://www.w3.org/2000/svg">
<path fill-rule="evenodd" clip-rule="evenodd" d="M9.418 10.0001H6.582C6.16587 9.99659 5.76541 10.1586 5.46873 10.4504C5.17204 10.7422 5.00343 11.1399 5 11.5561V17.4451C5.0077 18.3112 5.71584 19.0073 6.582 19.0001H9.418C9.83413 19.0035 10.2346 18.8415 10.5313 18.5497C10.828 18.2579 10.9966 17.8602 11 17.4441V11.5561C10.9966 11.1399 10.828 10.7422 10.5313 10.4504C10.2346 10.1586 9.83413 9.99659 9.418 10.0001Z" stroke="black" stroke-width="1.5" stroke-linecap="round" stroke-linejoin="round"/>
<path fill-rule="evenodd" clip-rule="evenodd" d="M9.418 4.0006H6.582C5.73326 3.97706 5.02559 4.64492 5 5.4936V6.5076C5.02559 7.35629 5.73326 8.02415 6.582 8.0006H9.418C10.2667 8.02415 10.9744 7.35629 11 6.5076V5.4936C10.9744 4.64492 10.2667 3.97706 9.418 4.0006Z" stroke="black" stroke-width="1.5" stroke-linecap="round" stroke-linejoin="round"/>
<path fill-rule="evenodd" clip-rule="evenodd" d="M14.582 13.001H17.417C17.8333 13.0048 18.234 12.8429 18.5309 12.551C18.8278 12.2592 18.9966 11.8613 19 11.445V5.55703C18.9966 5.1409 18.828 4.74318 18.5313 4.45137C18.2346 4.15956 17.8341 3.99757 17.418 4.00103H14.582C14.1659 3.99757 13.7654 4.15956 13.4687 4.45137C13.172 4.74318 13.0034 5.1409 13 5.55703V11.445C13.0034 11.8612 13.172 12.2589 13.4687 12.5507C13.7654 12.8425 14.1659 13.0045 14.582 13.001Z" stroke="black" stroke-width="1.5" stroke-linecap="round" stroke-linejoin="round"/>
<path fill-rule="evenodd" clip-rule="evenodd" d="M14.582 19.0006H17.417C18.2661 19.0247 18.9744 18.3567 19 17.5076V16.4936C18.9744 15.6449 18.2667 14.9771 17.418 15.0006H14.582C13.7333 14.9771 13.0256 15.6449 13 16.4936V17.5066C13.025 18.3557 13.7329 19.0241 14.582 19.0006Z" stroke="black" stroke-width="1.5" stroke-linecap="round" stroke-linejoin="round"/>
</svg>
