<svg width="20" height="20" viewBox="0 0 20 20" fill="none" xmlns="http://www.w3.org/2000/svg">
<mask id="mask0_838_1125" style="mask-type:alpha" maskUnits="userSpaceOnUse" x="0" y="0" width="20" height="20">
<rect width="20" height="20" fill="#D9D9D9"/>
</mask>
<g mask="url(#mask0_838_1125)">
<path d="M10.0069 17.5837C8.96373 17.5837 7.98123 17.3863 7.05942 16.9916C6.13762 16.5969 5.33081 16.0537 4.639 15.3622C3.9472 14.6707 3.4038 13.8645 3.0088 12.9437C2.61393 12.023 2.4165 11.0391 2.4165 9.9922C2.4165 8.94526 2.61387 7.96435 3.00859 7.04949C3.40331 6.13463 3.94643 5.3313 4.63796 4.63949C5.32949 3.94769 6.13567 3.40428 7.0565 3.00928C7.9772 2.61442 8.96102 2.41699 10.008 2.41699C11.0549 2.41699 12.0358 2.61435 12.9507 3.00908C13.8655 3.4038 14.6689 3.94692 15.3607 4.63845C16.0525 5.32998 16.5959 6.13449 16.9909 7.05199C17.3857 7.96963 17.5832 8.95005 17.5832 9.99324C17.5832 11.0364 17.3858 12.0189 16.9911 12.9407C16.5964 13.8625 16.0532 14.6694 15.3617 15.3612C14.6702 16.053 13.8657 16.5964 12.9482 16.9914C12.0305 17.3862 11.0501 17.5837 10.0069 17.5837ZM9.99984 16.5003C11.8054 16.5003 13.3401 15.8684 14.604 14.6045C15.8679 13.3406 16.4998 11.8059 16.4998 10.0003C16.4998 8.19477 15.8679 6.66005 14.604 5.39616C13.3401 4.13227 11.8054 3.50033 9.99984 3.50033C8.19428 3.50033 6.65956 4.13227 5.39567 5.39616C4.13178 6.66005 3.49984 8.19477 3.49984 10.0003C3.49984 11.8059 4.13178 13.3406 5.39567 14.6045C6.65956 15.8684 8.19428 16.5003 9.99984 16.5003ZM9.99984 16.5003C8.19428 16.5003 6.65956 15.8684 5.39567 14.6045C4.13178 13.3406 3.49984 11.8059 3.49984 10.0003C3.49984 8.19477 4.13178 6.66005 5.39567 5.39616C6.65956 4.13227 8.19428 3.50033 9.99984 3.50033C11.8054 3.50033 13.3401 4.13227 14.604 5.39616C15.8679 6.66005 16.4998 8.19477 16.4998 10.0003C16.4998 11.8059 15.8679 13.3406 14.604 14.6045C13.3401 15.8684 11.8054 16.5003 9.99984 16.5003Z" fill="#339989"/>
</g>
</svg>
