<svg width="24" height="24" viewBox="0 0 24 24" fill="none" xmlns="http://www.w3.org/2000/svg">
<path d="M2.006 3.10931L2 3.00331L2.008 2.87331L2.024 2.78331L2.059 2.66031L2.105 2.55331L2.162 2.45331L2.229 2.36331L2.304 2.28131L2.363 2.22931L2.479 2.14731L2.575 2.09531C2.675 2.04865 2.78033 2.01865 2.891 2.00531L2.997 2.00031C3.07233 2.00031 3.14567 2.00831 3.217 2.02431L3.34 2.05931L21.417 8.59131C21.6866 8.71514 21.9149 8.91372 22.075 9.16347C22.2351 9.41323 22.3201 9.70367 22.32 10.0003C22.3206 10.2674 22.2521 10.5301 22.1212 10.763C21.9903 10.9959 21.8015 11.1909 21.573 11.3293L21.446 11.3943L14.744 14.7463L11.408 21.4163C11.2951 21.6631 11.1194 21.8759 10.8985 22.0335C10.6775 22.1911 10.4191 22.2879 10.149 22.3143L10 22.3203C9.44 22.3203 8.928 22.0193 8.63 21.4793L8.56 21.3393L2.054 3.32231L2.024 3.21631L2.006 3.10931Z" fill="#4447BF"/>
</svg>
